<svg width="599" xmlns="http://www.w3.org/2000/svg" height="457" viewBox="-27 -27 599 457" fill="none"><defs><filter id="a" x="-.124" y="-.069" width="1.303" height="1.169" filterUnits="objectBoundingBox" color-interpolation-filters="sRGB"><feFlood flood-opacity="0" result="BackgroundImageFix"/><feColorMatrix in="SourceAlpha" values="0 0 0 0 0 0 0 0 0 0 0 0 0 0 0 0 0 0 127 0"/><feOffset dx="4" dy="4"/><feGaussianBlur stdDeviation="2"/><feColorMatrix values="0 0 0 0 0 0 0 0 0 0 0 0 0 0 0 0 0 0 0.2 0"/><feBlend in2="BackgroundImageFix" result="filter_a3dbaa28-1a80-8034-8006-04b9205216d6"/><feBlend in="SourceGraphic" in2="filter_a3dbaa28-1a80-8034-8006-04b9205216d6" result="shape"/></filter></defs><path d="M2.000,335.000L0.000,94.000L214.000,0.000L218.000,391.000L2.000,335.000Z" filter="url(#a)" style="fill: rgb(114, 114, 114); fill-opacity: 1;" class="fills"/><g class="strokes"><g class="inner-stroke-shape"><defs><clipPath id="c"><use href="#b"/></clipPath><path d="M2.000,335.000L0.000,94.000L214.000,0.000L218.000,391.000L2.000,335.000Z" id="b" style="fill: none; stroke-width: 2; stroke: rgb(0, 0, 0); stroke-opacity: 1;"/></defs><use href="#b" clip-path="url('#c')"/></g></g><defs><filter id="d" x="-.174" y="-.092" width="1.426" height="1.224" filterUnits="objectBoundingBox" color-interpolation-filters="sRGB"><feFlood flood-opacity="0" result="BackgroundImageFix"/><feColorMatrix in="SourceAlpha" values="0 0 0 0 0 0 0 0 0 0 0 0 0 0 0 0 0 0 127 0"/><feOffset dx="4" dy="4"/><feGaussianBlur stdDeviation="2"/><feColorMatrix values="0 0 0 0 0 0 0 0 0 0 0 0 0 0 0 0 0 0 0.2 0"/><feBlend in2="BackgroundImageFix" result="filter_a3dbaa28-1a80-8034-8006-04b94e8949fc"/><feBlend in="SourceGraphic" in2="filter_a3dbaa28-1a80-8034-8006-04b94e8949fc" result="shape"/></filter></defs><path d="M266.000,49.000C266.000,49.000,418.000,49.000,421.000,192.000C424.000,335.000,276.000,343.000,276.000,343.000L274.000,323.000C274.000,323.000,389.000,319.000,402.000,193.000C415.000,67.000,267.000,67.000,267.000,67.000L266.000,49.000Z" filter="url(#d)" style="fill: rgb(177, 178, 181); fill-opacity: 1;" class="fills"/><g class="strokes"><g class="inner-stroke-shape"><defs><clipPath id="f"><use href="#e"/></clipPath><path d="M266.000,49.000C266.000,49.000,418.000,49.000,421.000,192.000C424.000,335.000,276.000,343.000,276.000,343.000L274.000,323.000C274.000,323.000,389.000,319.000,402.000,193.000C415.000,67.000,267.000,67.000,267.000,67.000L266.000,49.000Z" id="e" style="fill: none; stroke-width: 2; stroke: rgb(0, 0, 0); stroke-opacity: 1;"/></defs><use href="#e" clip-path="url('#f')"/></g></g><defs><filter id="g" x="-.143" y="-.077" width="1.349" height="1.188" filterUnits="objectBoundingBox" color-interpolation-filters="sRGB"><feFlood flood-opacity="0" result="BackgroundImageFix"/><feColorMatrix in="SourceAlpha" values="0 0 0 0 0 0 0 0 0 0 0 0 0 0 0 0 0 0 127 0"/><feOffset dx="4" dy="4"/><feGaussianBlur stdDeviation="2"/><feColorMatrix values="0 0 0 0 0 0 0 0 0 0 0 0 0 0 0 0 0 0 0.2 0"/><feBlend in2="BackgroundImageFix" result="filter_a3dbaa28-1a80-8034-8006-04b94e8949fc"/><feBlend in="SourceGraphic" in2="filter_a3dbaa28-1a80-8034-8006-04b94e8949fc" result="shape"/></filter></defs><path d="M344.000,20.000C344.000,20.000,529.288,20.000,532.945,191.211C536.602,362.422,356.190,372.000,356.190,372.000L353.752,348.054C353.752,348.054,493.937,343.265,509.784,192.408C525.631,41.551,345.219,41.551,345.219,41.551L344.000,20.000Z" filter="url(#g)" style="fill: rgb(177, 178, 181); fill-opacity: 1;" class="fills"/><g class="strokes"><g class="inner-stroke-shape"><defs><clipPath id="i"><use href="#h"/></clipPath><path d="M344.000,20.000C344.000,20.000,529.288,20.000,532.945,191.211C536.602,362.422,356.190,372.000,356.190,372.000L353.752,348.054C353.752,348.054,493.937,343.265,509.784,192.408C525.631,41.551,345.219,41.551,345.219,41.551L344.000,20.000Z" id="h" style="fill: none; stroke-width: 2; stroke: rgb(0, 0, 0); stroke-opacity: 1;"/></defs><use href="#h" clip-path="url('#i')"/></g></g><defs><filter id="j" x="-.252" y="-.119" width="1.617" height="1.291" filterUnits="objectBoundingBox" color-interpolation-filters="sRGB"><feFlood flood-opacity="0" result="BackgroundImageFix"/><feColorMatrix in="SourceAlpha" values="0 0 0 0 0 0 0 0 0 0 0 0 0 0 0 0 0 0 127 0"/><feOffset dx="4" dy="4"/><feGaussianBlur stdDeviation="2"/><feColorMatrix values="0 0 0 0 0 0 0 0 0 0 0 0 0 0 0 0 0 0 0.2 0"/><feBlend in2="BackgroundImageFix" result="filter_a3dbaa28-1a80-8034-8006-04b94e8949fc"/><feBlend in="SourceGraphic" in2="filter_a3dbaa28-1a80-8034-8006-04b94e8949fc" result="shape"/></filter></defs><path d="M237.000,83.000C237.000,83.000,341.899,83.000,343.969,193.412C346.039,303.823,243.901,310.000,243.901,310.000L242.521,294.558C242.521,294.558,321.885,291.469,330.857,194.184C339.828,96.898,237.690,96.898,237.690,96.898L237.000,83.000Z" filter="url(#j)" style="fill: rgb(177, 178, 181); fill-opacity: 1;" class="fills"/><g class="strokes"><g class="inner-stroke-shape"><defs><clipPath id="l"><use href="#k"/></clipPath><path d="M237.000,83.000C237.000,83.000,341.899,83.000,343.969,193.412C346.039,303.823,243.901,310.000,243.901,310.000L242.521,294.558C242.521,294.558,321.885,291.469,330.857,194.184C339.828,96.898,237.690,96.898,237.690,96.898L237.000,83.000Z" id="k" style="fill: none; stroke-width: 2; stroke: rgb(0, 0, 0); stroke-opacity: 1;"/></defs><use href="#k" clip-path="url('#l')"/></g></g></svg>